<svg width="55" height="41" viewBox="0 0 55 41" fill="none" xmlns="http://www.w3.org/2000/svg">
<path d="M47.2189 5.24936C42.57 1.5084 35.2159 0.874258 34.9011 0.851447C34.4129 0.810388 33.9476 1.08412 33.7468 1.53577C33.7286 1.56314 33.5689 1.93268 33.391 2.50751C36.4659 3.02759 40.2434 4.07232 43.6604 6.19372C44.2079 6.53132 44.3767 7.25214 44.0391 7.7996C43.8155 8.16001 43.4369 8.35618 43.0445 8.35618C42.8347 8.35618 42.6202 8.29688 42.4286 8.17826C36.5526 4.5331 29.2166 4.35062 27.8024 4.35062C26.3881 4.35062 19.0476 4.5331 13.1761 8.17826C12.6287 8.52042 11.9078 8.35162 11.5702 7.80416C11.2281 7.25214 11.3969 6.53589 11.9443 6.19372C15.3614 4.07689 19.1388 3.02759 22.2137 2.51207C22.0358 1.93268 21.8761 1.56771 21.8624 1.53577C21.6572 1.08412 21.1964 0.801264 20.7037 0.851447C20.3889 0.874258 13.0347 1.5084 8.32199 5.29954C5.86299 7.57606 0.94043 20.8793 0.94043 32.3805C0.94043 32.5858 0.995175 32.7819 1.09554 32.9599C4.48978 38.9272 13.7555 40.4874 15.8678 40.5558C15.8769 40.5558 15.8906 40.5558 15.9043 40.5558C16.2784 40.5558 16.6297 40.3779 16.8486 40.0768L18.9837 37.1388C13.2217 35.6515 10.2792 33.1241 10.1104 32.9735C9.62676 32.5493 9.58114 31.8102 10.01 31.3266C10.4343 30.843 11.1733 30.7974 11.6569 31.2217C11.7254 31.2855 17.1452 35.8842 27.8024 35.8842C38.4778 35.8842 43.8976 31.2673 43.9524 31.2217C44.436 30.802 45.1705 30.843 45.5993 31.3312C46.0236 31.8148 45.978 32.5493 45.4944 32.9735C45.3256 33.1241 42.383 35.6515 36.621 37.1388L38.7561 40.0768C38.9751 40.3779 39.3264 40.5558 39.7005 40.5558C39.7141 40.5558 39.7278 40.5558 39.7369 40.5558C41.8492 40.4874 51.115 38.9272 54.5092 32.9599C54.6096 32.7819 54.6643 32.5858 54.6643 32.3805C54.6643 20.8793 49.7417 7.57606 47.2189 5.24936ZM20.211 27.7088C17.9527 27.7088 16.1233 25.6194 16.1233 23.0372C16.1233 20.455 17.9527 18.3655 20.211 18.3655C22.4692 18.3655 24.2986 20.455 24.2986 23.0372C24.2986 25.6194 22.4692 27.7088 20.211 27.7088ZM35.3938 27.7088C33.1355 27.7088 31.3061 25.6194 31.3061 23.0372C31.3061 20.455 33.1355 18.3655 35.3938 18.3655C37.6521 18.3655 39.4815 20.455 39.4815 23.0372C39.4815 25.6194 37.6521 27.7088 35.3938 27.7088Z" fill="white"/>
</svg>
