<svg width="45" height="45" viewBox="0 0 45 45" fill="none" xmlns="http://www.w3.org/2000/svg">
<path d="M12.4652 0.971191C5.75699 0.971191 0.299438 6.42874 0.299438 13.1369V32.6021C0.299438 39.3103 5.75699 44.7678 12.4652 44.7678H31.9303C38.6385 44.7678 44.0961 39.3103 44.0961 32.6021V13.1369C44.0961 6.42874 38.6385 0.971191 31.9303 0.971191H12.4652ZM12.4652 5.83748H31.9303C35.9548 5.83748 39.2298 9.1125 39.2298 13.1369V32.6021C39.2298 36.6265 35.9548 39.9015 31.9303 39.9015H12.4652C8.44075 39.9015 5.16573 36.6265 5.16573 32.6021V13.1369C5.16573 9.1125 8.44075 5.83748 12.4652 5.83748ZM34.3635 8.27063C33.7182 8.27063 33.0993 8.52698 32.643 8.98328C32.1867 9.43959 31.9303 10.0585 31.9303 10.7038C31.9303 11.3491 32.1867 11.968 32.643 12.4243C33.0993 12.8806 33.7182 13.1369 34.3635 13.1369C35.0088 13.1369 35.6277 12.8806 36.084 12.4243C36.5403 11.968 36.7966 11.3491 36.7966 10.7038C36.7966 10.0585 36.5403 9.43959 36.084 8.98328C35.6277 8.52698 35.0088 8.27063 34.3635 8.27063ZM22.1978 10.7038C15.4896 10.7038 10.032 16.1613 10.032 22.8695C10.032 29.5777 15.4896 35.0352 22.1978 35.0352C28.9059 35.0352 34.3635 29.5777 34.3635 22.8695C34.3635 16.1613 28.9059 10.7038 22.1978 10.7038ZM22.1978 15.5701C26.2222 15.5701 29.4972 18.8451 29.4972 22.8695C29.4972 26.8939 26.2222 30.1689 22.1978 30.1689C18.1733 30.1689 14.8983 26.8939 14.8983 22.8695C14.8983 18.8451 18.1733 15.5701 22.1978 15.5701Z" fill="white"/>
</svg>
